<?xml version="1.0" encoding="UTF-8"?>
<svg xmlns="http://www.w3.org/2000/svg" version="1.1" viewBox="0 0 300 300">
  <defs>
    <style>
      .cls-1 {
        fill: #fff7e9;
      }

      .cls-1, .cls-2, .cls-3, .cls-4, .cls-5 {
        stroke-linecap: round;
      }

      .cls-1, .cls-3, .cls-4, .cls-5 {
        stroke: #000;
        stroke-linejoin: round;
        stroke-width: 3px;
      }

      .cls-6 {
        fill: #fff;
      }

      .cls-2 {
        stroke: #fff;
        stroke-miterlimit: 10;
        stroke-width: 2px;
      }

      .cls-2, .cls-3 {
        fill: none;
      }

      .cls-7 {
        fill: #c27600;
      }

      .cls-4 {
        fill: #68cea5;
      }

      .cls-5 {
        fill: #f8c668;
      }

      .cls-8 {
        fill: #95b65c;
      }
    </style>
  </defs>
  <!-- Generator: Adobe Illustrator 28.6.0, SVG Export Plug-In . SVG Version: 1.2.0 Build 709)  -->
  <g>
    <g id="Layer_1">
      <g>
        <path class="cls-3" d="M272.7,54.1h-3.5"/>
        <path class="cls-3" d="M147.2,133.9"/>
        <path class="cls-3" d="M240.3,97.8"/>
        <path class="cls-3" d="M166.3,81"/>
        <path class="cls-2" d="M169.4,98.2"/>
        <path class="cls-2" d="M154.4,94.6"/>
        <path class="cls-2" d="M149.1,91.7"/>
        <path class="cls-2" d="M152.2,85.7"/>
        <path class="cls-4" d="M186,212.4s42.4-38,50.1-13.2c0,0,6.1,25.7-50.8,16.3"/>
        <path class="cls-4" d="M140.3,220.7c-3-12.7-9.4-21.4-16.1-21.7-.6,0-3-.2-4.4,1.4-2.9,3.1.5,10.8,3.4,14.8,4.3,6.1,10.6,8.7,14.2,9.8"/>
        <path class="cls-3" d="M188.2,213.8s18.8-9.6,28-9.1c9.2.5,1.5,0,1.5,0"/>
        <path class="cls-3" d="M127.7,209.3s9.5,7.5,10.7,11.4c1.2,3.8,1.1,3.5,1.1,3.5"/>
        <path class="cls-4" d="M185.3,167s1.8,67.9-10.2,78.7c0,0-10.1-1.8-11.1-4.8,0,0,19.2-62.9,6.2-83.7l15.3,3.7v6Z"/>
        <path class="cls-4" d="M156.2,167.8s.7,64.2-8.9,77.9c0,0-9.6-1.5-11.1-5.6,0,0,12.8-49.9,8.1-72.4-4.7-22.4.6-.8.6-.8l11.3.8Z"/>
        <g>
          <path d="M128.2,261.8v1.5c0,.8.6,1.4,1.4,1.5h.9c.2-.9.2-1.6,0-2.2,0-.1-.1-.2-.2-.3-.4-.4-1-.7-1.5-.6-.2,0-.4,0-.5.2Z"/>
          <path d="M129.6,243c-.4,0-.7.1-1,.4.5,1.1,1.3,2.3,2.4,3.3v-2.2c-.4-.5-.7-1-1-1.4-.2,0-.3-.1-.5-.1Z"/>
          <path d="M130.1,243.1c.2.5.6,1,.9,1.4h0c0-.7-.4-1.2-.9-1.4Z"/>
          <path d="M128.2,244.5v17.3c.2,0,.4-.2.6-.2.6-.1,1.2.1,1.5.6,0,0,.1.2.2.3l.7-.6v-15.1c-1.2-1.1-2-2.2-2.5-3.3-.3.3-.5.7-.5,1.1Z"/>
          <path d="M139.5,249.3h.1c0,0-.1-.1-.2-.1-3.9-.9-6.8-2.7-8.4-4.6v2.2c1.7,1.6,4.1,2.9,7.1,3.7.6-.6,1.1-1,1.2-1.1Z"/>
          <path d="M139.4,254.2c.1-1.1,1.4-2.2,1.7-2.4.2-.2.4-.4.5-.6-.8-.1-1.6-.3-2.5-.5-.3,0-.6-.1-.9-.2-.7.8-1.6,1.9-1.7,3.3-.1.8.5,1.5,1.3,1.6,0,0,.1,0,.2,0,.7,0,1.4-.5,1.5-1.3Z"/>
          <path d="M141.4,249.6c-.4-.6-1.2-.7-1.8-.4.6.1,1.2.3,1.8.4Z"/>
          <path d="M141.6,251.2c.2-.4.2-1-.1-1.4,0,0,0,0,0,0-.6-.1-1.2-.2-1.8-.4h-.1c-.1.2-.7.6-1.2,1.2.3,0,.6.2.9.2.9.2,1.7.4,2.5.5Z"/>
          <path class="cls-8" d="M139.8,247.8c3.3.7,5.8,1,7.7,1v-1.6c-.2,0-.4,0-.5,0-7.4-2.6-11.4-4.9-11.7-6.7,0-.1,0-.3,0-.4v-2.2h-.3c-1.6.6-3.5,1.6-3.8,2.9-.4,2,2.7,5.8,8.6,7.1Z"/>
          <path class="cls-8" d="M147.5,248.8c2.9,0,4.3-.7,4.5-1.6.3-1-.6-2.5-1.3-3.3l-2.1,2.7c-.3.4-.7.6-1.2.6v1.6Z"/>
          <path d="M152,247.2c-.2.9-1.6,1.6-4.5,1.6-1.9,0-4.4-.3-7.7-1-5.9-1.3-9.1-5.1-8.6-7.1.3-1.2,2.2-2.3,3.8-2.8h.3s0,2.1,0,2.1c0,.1,0,.3,0,.4.3,1.8,4.3,4.1,11.7,6.7.2,0,.3,0,.5,0,.4,0,.9-.2,1.2-.6l2.1-2.7c.7.8,1.6,2.2,1.3,3.3ZM153.2,248c0-.2,0-.4,0-.6,0-.2.1-.3.2-.4.1-2.2-1.9-4.7-3.2-5l-2.9,3.8s-10.4-3.7-10.8-5.6c0,0,0,0,0,0v-3.9l-2.1.4c-.8.3-4.3,1.5-4.8,4-.2.8,0,1.8.4,2.7.6.2.9.7.9,1.3h0c1.6,2,4.4,3.9,8.4,4.7,0,0,.1,0,.2,0,.6-.3,1.4-.2,1.8.4,7.7,1.4,10.9.2,11.8-1.6h0Z"/>
          <path d="M153.2,248c.2-.3.3-.7.3-1.1,0,.1-.2.3-.2.4,0,.2,0,.4,0,.6Z"/>
          <path d="M147.3,251.7c3.1,0,5.2-.7,6.5-2,.1-.2.3-.3.4-.5-.5-.2-.9-.6-1-1.2-.9,1.8-4,3.1-11.8,1.6,0,0,0,0,0,0,.3.4.3,1,.1,1.4,2.2.4,4.1.6,5.7.6Z"/>
          <path class="cls-8" d="M166.9,262.4c.5-1.7.3-3.3-.4-4.8-2.7-5.4-12.1-8.4-12.2-8.4h0c-.1.2-.2.3-.4.5-1.2,1.4-3.4,2-6.5,2s-3.5-.2-5.7-.6c-.1.2-.3.4-.5.6-.3.2-1.6,1.3-1.7,2.4,0,.7-.7,1.3-1.5,1.3s-.1,0-.2,0c-.8-.1-1.4-.8-1.3-1.6.2-1.4,1-2.6,1.7-3.3-3-.8-5.4-2.1-7.1-3.7v15.1s2.6.1,2.6.1c.2,0,.4,0,.6.2,15.4,7.8,29.8,1.6,32.6.3Z"/>
          <path d="M154.9,246.3c0-.4-.1-.9-.3-1.4-.7-2.1-2.5-4.1-4-4.5-.6-.1-1.1,0-1.5.5l-2.2,2.9c-3.9-1.4-8-3.3-8.8-4.3v-3.6c0-.4-.2-.8-.5-1.1-.3-.3-.8-.4-1.2-.3l-2.1.4c0,0-.1,0-.2,0-1.9.6-5.2,2.1-5.8,5-.2,1,0,2.2.4,3.3.3-.2.6-.4,1-.4s.4,0,.5.1c-.5-1-.6-1.9-.4-2.7.5-2.4,4-3.7,4.8-4l2.1-.4v3.9s0,0,0,0c.4,2,10.8,5.6,10.8,5.6l2.9-3.8c1.2.3,3.3,2.8,3.2,5,.3-.4.9-.7,1.5-.6Z"/>
          <path d="M154.2,249.2c.6-.8.8-1.8.7-2.8-.6-.1-1.1.1-1.5.6,0,.4,0,.7-.3,1.1h0c0,.5.5,1,1,1.2Z"/>
          <path d="M164,248.2c-1.5-.8-2.9-1.8-4.3-2.8v.2c1.8,1.5,4.2,2.8,6.4,3.7-.7-.4-1.4-.7-2-1.1Z"/>
          <path class="cls-8" d="M159.6,245.6v1.7s6.9,4.6,6.9,4.6l1.3-1.7c-.6-.3-1.2-.5-1.8-.8,0,0,0,0,0,0-2.1-.9-4.6-2.1-6.4-3.7Z"/>
          <path d="M166.2,254c.2.1.4.2.5.2s.5,0,.7-.3c-2.7-3.2-7-5.4-9.7-6.5v.4c0,.3.2.6.4.8l8,5.4Z"/>
          <path d="M169.7,263.2c.7-2.4.5-4.8-.6-7-.4-.8-1-1.6-1.6-2.4-.2.2-.4.3-.7.3s-.4,0-.5-.2l-8-5.4c-.3-.2-.4-.5-.4-.8v-.4c-1.5-.6-2.5-.9-2.7-1,0,0,0,0-.1,0,0,1.1-.2,2-.7,2.8h0c0,0,9.5,2.9,12.2,8.4.8,1.6.9,3.2.4,4.8-2.8,1.4-17.2,7.5-32.6-.3-.2,0-.4-.1-.6-.2h-2.5c0-.1-.7.5-.7.5.3.6.3,1.3,0,2.3h2.7c6.2,3.2,12.1,4.2,17.4,4.2,8.5,0,15-2.7,17.3-3.8v-.5c0-.8.5-1.5,1.3-1.5.2,0,.3,0,.4,0Z"/>
          <path d="M167.5,253.8l2.4-3.1s0,0,0,0c0,0,0,0-.1,0-.8-.3-2.1-.7-3.6-1.3.6.3,1.2.6,1.8.8l-1.3,1.7-6.8-4.6v-1.7c-.9-.7-1.6-1.6-2-2.4,0,0,0,.2,0,.3v3.9c2.9,1.1,7.1,3.3,9.8,6.5,0,0,0,0,0,0Z"/>
          <path class="cls-7" d="M134.6,267c10.2,6.5,23.7,4.8,30.9,3.3,1.5-.3,2.6-1.7,2.5-3.3v-1.8c-2.4,1.1-8.9,3.8-17.4,3.8s-11.2-1-17.4-4.1h-2.7c-.1.3-.3.8-.4,1.3.5.3,2.2.6,3.7.6.3,0,.6,0,.8.2Z"/>
          <path d="M168.8,271.1c.2-.5.7-.8,1.2-.8.4-.6.6-1.3.8-2-.3,0-.7-.1-1-.2-.8-.2-1.3-1-1.1-1.8.2-.7.8-1.1,1.4-1.1l-.9-.7c-.1.1-.3.2-.4.3,0,0-.4.2-.9.4v1.8c.2,1.6-.9,3-2.4,3.3-7.1,1.6-20.6,3.2-30.9-3.3-.3-.2-.5-.3-.8-.2-1.5,0-3.2-.2-3.7-.6.2-.5.3-1,.4-1.4h-.9c-.8,0-1.4-.7-1.4-1.5v-1.5c-.5.3-.8.9-.7,1.5,0,.2.1.4.2.5,0,.2-.2.7-.4,1.3-.4,1-.2,1.9.3,2.7,1.2,1.6,4.2,1.8,5.7,1.8h0c6.1,3.8,13.2,4.9,19.6,4.9s9.8-.7,13.1-1.5c1-.2,1.9-.7,2.6-1.3,0-.3,0-.5.1-.8Z"/>
          <path d="M168.8,264.7c.2,0,.3-.2.4-.3.1-.1.2-.3.3-.5,0-.2.2-.5.2-.7-.1,0-.3,0-.4,0-.8,0-1.4.7-1.4,1.5v.5c.5-.2.8-.4.9-.4Z"/>
          <path d="M168.7,271.8c.5-.4,1-1,1.4-1.6-.5,0-1,.3-1.2.8-.1.3-.2.5-.1.8Z"/>
          <path d="M170.1,249.2s-9.5-3.1-11.2-6.7c-.3-.1-.6-.1-.8,0-.2.1-.4.3-.5.6h0c.4.9,1.1,1.7,2,2.4v-.2c1.4,1,2.8,1.9,4.3,2.8.7.4,1.4.7,2,1.1,0,0,0,0,0,0,1.5.6,2.8,1.1,3.6,1.3,0,0,0,0,.1,0,0,0,0,0,0,0l.3-.4c.2-.2.3-.6.2-.8,0,0,0-.1,0-.2h-.1Z"/>
          <path d="M170.9,266.8v-1.5c-.2,0-.3,0-.4,0s-.2,0-.3,0c-.7,0-1.3.5-1.4,1.1-.2.8.3,1.6,1.1,1.8.3,0,.7.2,1,.2,0-.5.1-1,0-1.5Z"/>
          <path d="M159,242.5c1.6,3.6,11.2,6.7,11.2,6.7h.1c-.1-.2-.3-.3-.5-.4-1.6-.7-3.3-1.5-4.8-2.4-2-1.1-3.9-2.4-5.7-3.8,0,0-.1,0-.2-.1Z"/>
          <path class="cls-8" d="M169.2,264.4l.9.7c.1,0,.2,0,.3,0s.2,0,.4,0v-.7c0-.7-.5-1.2-1.1-1.3,0,.2-.1.5-.2.7,0,.2-.2.3-.3.5Z"/>
          <path class="cls-8" d="M177.7,247.1c.6-.6.8-1.4.8-2.3l-1.8,2c-.4.4-1,.6-1.5.4-5.1-1.5-11.4-3.6-12.5-5-.2-.3-.3-.6-.3-1l.3-3.2c-.8.3-2.6,1.2-2.6,3.5s5.3,4.7,10.3,6.3c3.6.8,6.1.5,7.2-.7Z"/>
          <path d="M164.9,246.5c1.6.9,3.2,1.7,4.8,2.4.2,0,.4.2.5.4,12.8,2.8,9.4-7.8,9.4-7.8l-4,4.4s-10.7-3.1-11.7-4.5l.4-4.9h-1.6s-4.1.9-4.1,5,0,.7.2,1c0,0,.2,0,.2.1,1.8,1.4,3.7,2.7,5.7,3.8ZM170.5,247.8c-5-1.6-10.3-4.6-10.3-6.3s1.8-3.2,2.6-3.5l-.3,3.2c0,.3,0,.7.3,1,1.1,1.5,7.4,3.6,12.5,5,.5.2,1.1,0,1.5-.4l1.8-2c0,.8-.3,1.7-.8,2.3-1.2,1.2-3.6,1.5-7.2.7Z"/>
          <path d="M170.2,250.3l-.3.4c1.6.4,2.9.5,4.2.5,2.6,0,4.5-.7,5.8-2.1.3-.3.5-.6.7-.9,0-.2,0-.4,0-.6,0-.4.3-.8.7-1,.7-2.6-.2-5.4-.2-5.5-.2-.5-.6-.9-1.1-1-.5-.1-1,0-1.4.4l-3.4,3.7c-4-1.2-8.3-2.7-9.7-3.5l.4-4.1c0-.4-.1-.8-.4-1.1-.3-.3-.7-.5-1.1-.5h-1.6c-.1,0-.2,0-.3,0-1.8.4-5.2,2.3-5.2,6.4s.1,1.1.4,1.7c0-.3.3-.5.5-.6.3-.1.6-.1.8,0-.2-.3-.2-.7-.2-1,0-4.1,4.1-5,4.1-5h1.6l-.4,4.9c1,1.4,11.7,4.5,11.7,4.5l4-4.4s3.5,10.6-9.4,7.8c0,0,0,.1,0,.2,0,.3,0,.6-.2.8Z"/>
          <path class="cls-8" d="M169,256.2c1.1,2.2,1.3,4.6.6,7,.6.1,1.1.7,1.1,1.3v.7c14.9,3.4,21.5,0,23.9-1.9.5-.4.9-.8,1-1,.4-2.5,0-4.6-1.3-6.5-3.6-5.2-12.5-6.6-12.6-6.6-.6,0-1.1-.5-1.2-1.1-.2.3-.4.6-.7.9-1.3,1.4-3.2,2.1-5.8,2.1s-2.7-.2-4.2-.5l-2.4,3.1s0,0,0,0c.6.7,1.2,1.5,1.6,2.4Z"/>
          <path d="M181.2,246.5c-.4.2-.6.6-.7,1,0,.2,0,.4,0,.6.3-.5.5-1.1.7-1.6Z"/>
          <path d="M194.7,263.3c-2.4,2-9,5.3-23.9,1.9v1.5c.1.5,0,1,0,1.5,4.6,1,8.4,1.4,11.6,1.4,7.2,0,11.3-2,13.6-3.6v-1.3c-.2-.5,0-1,.4-1.3h-1.8Z"/>
          <path class="cls-7" d="M170.8,270.4c7.2,3.6,17.6,1.1,23.1-.6,1.4-.5,2.4-1.9,2.2-3.4v-.4c-2.3,1.7-6.5,3.6-13.6,3.6s-7.1-.4-11.6-1.4c-.1.7-.4,1.4-.8,2,.3,0,.5,0,.8.2Z"/>
          <path d="M196.5,263.5c-.4.3-.6.8-.6,1.3v1.3c1.7-1.2,2.4-2.3,2.5-2.4,0,0,0,0,0,0-.3-.3-.7-.5-1.2-.4-.3,0-.5.1-.8.3Z"/>
          <path d="M198.6,263.2c.7-3.4,0-6.4-1.8-9.1-4.4-6.2-14.2-7.7-14.6-7.8-.4,0-.7,0-1,.2-.1.5-.4,1.1-.7,1.6.1.6.6,1,1.2,1.1,0,0,9,1.4,12.6,6.6,1.3,1.9,1.8,4,1.3,6.5-.2.2-.5.6-1,1h1.8c.2,0,.5-.2.8-.2.5,0,.9.1,1.2.4,0-.1.1-.3.2-.4Z"/>
          <path d="M170,270.3c-.4.6-.8,1.1-1.4,1.6,0,.5.3,1,.8,1.2,3.1,1.6,6.8,2.1,10.3,2.1,5.7,0,11.3-1.4,15-2.6,2.7-.9,4.5-3.6,4.2-6.4l-.2-1.7c0-.3-.2-.6-.4-.9,0,0,0,0,0,0,0,.1-.7,1.2-2.3,2.4v.4c.2,1.5-.7,2.9-2.2,3.4-5.5,1.8-15.9,4.2-23.1.6-.2-.1-.5-.2-.8-.2Z"/>
        </g>
        <path class="cls-4" d="M88.8,136.6c-27-5.6-42.9-22.6-47.8-28.3,0,0-1-6.6-2.5-7.9s4.5-10.5-5.3-12.9c0,0-6.9-.5-6.5,11.9,0,0-9.7-2.4-15,6,0,0-10.2,5.2-4.4,11.9,0,0-.6,3.5.8,4.8s7.7,1.8,13-2.5c0,0,10.1,4.8,16.9.4,6.5,6.7,17.1,15.8,32.5,22.1,32.2,13.2,61.8,4.5,70.9,1.4l-4.9-10.8c-7.4,2.8-25.4,8.5-47.8,3.9Z"/>
        <path class="cls-3" d="M11.1,106.1s5.4-2.9,7.6-.9"/>
        <path class="cls-3" d="M8.7,116.5s8-7.9,11.5-5.9"/>
        <path class="cls-3" d="M21.8,114.7s-4-10,.2-13"/>
        <path class="cls-4" d="M217.6,121.9c13.9-4.7,21.5-15.3,26.8-22.9,13.4-19.1,17-39.8,18-51.2,0,0-2-4.9-2-6.8s-10.7-3.9-5.9-12.7c0,0,4.4-5.4,13.2,3.4,0,0,4.9-8.8,14.6-6.8,0,0,10.7-3.9,11.7,4.9,0,0,2.9,2,2.9,3.9s-3.9,6.8-10.7,7.8c0,0-4.9,10.7-12.7,12.7,0,0-16.7,69.8-52.7,79.3l-9.9,3.6-3.2-12.9c2.4-.2,5.9-.8,9.8-2.1Z"/>
        <path class="cls-3" d="M283.5,24.9s-5.9,2-5.9,4.9"/>
        <path class="cls-3" d="M292.7,30.2s-11.2.5-12.2,4.4"/>
        <path class="cls-3" d="M282.5,38.5s-4.6-9.8-9.6-8.8"/>
        <path class="cls-3" d="M111.3,136.6"/>
        <circle class="cls-1" cx="173.6" cy="51.1" r="27"/>
        <circle class="cls-1" cx="123.6" cy="60.2" r="27"/>
        <path class="cls-1" d="M127.9,121c-1.3.6-15.2,7.1-17.8,21.8-2.4,13.9,6.9,26.5,17.8,31.6,15.1,7,34,0,39.1-10.6,1.5-3,1.8-6.3,2.2-10.2,1.3-12.3-3.2-17.2-3.2-17.2,0,0,0,0,0,0,0,0,0,0,0,0,0,0-1.2-1.1-2.3-2"/>
        <path class="cls-1" d="M163,135.3s4.7,39.5,42.8,30.4c0,0,28.6-11.9,7.5-47l-.2-.6s-6.2-9-14.8-11.6"/>
        <path class="cls-1" d="M194.7,113s44.2,22.4,45.6-21.4c.4-13.1-3.1-21-8.2-25.5-.6-.5-2.5-2.1-5.4-3.4-12.1-5.6-27.5.1-27.5.1-4.1,1.3-8.6,3-13.3,5.5-1.5.8-2.9,1.6-4.3,2.5"/>
        <path class="cls-3" d="M147.2,134.8s-5.4,10.6-9.1,14.3l-3.7,3.7"/>
        <path class="cls-3" d="M183.3,128.8s4.4,10.5,8.1,12.6l3.7,2.1"/>
        <path class="cls-3" d="M197.6,90.3s18.9,6.1,24.3,0"/>
        <path class="cls-1" d="M126.9,81.7s-39.2-30.3-48.9,12.4c-2.9,12.8-1,21.2,3.2,26.6.5.6,2,2.5,4.6,4.4,10.8,7.8,27,5.1,27,5.1,4.2-.5,9-1.3,14.1-2.9,1.6-.5,3.2-1,4.7-1.6"/>
        <path class="cls-3" d="M120.6,101.5s-16.3,1.8-17.5,3.7"/>
        <path class="cls-3" d="M174.7,35.6s6.2,22.5-3.2,26.4"/>
        <path class="cls-3" d="M117.1,56.1s15.1,5.5,15.8,14.3"/>
        <ellipse class="cls-5" cx="159.2" cy="99" rx="36.8" ry="34.9"/>
        <path class="cls-3" d="M154.4,73.8c.6-.6,2-1.7,4-2.2,2.8-.7,5,.2,5.8.5"/>
        <path class="cls-3" d="M147.2,76.2c-1-.2-4.1-.7-6.3,1.1-.3.2-.5.5-.8.8-.2.2-.4.5-.6.7-1,1.2-1.6,2.5-2.1,3.6"/>
        <ellipse class="cls-6" cx="151.6" cy="94.6" rx="7.3" ry="11.7" transform="translate(-19.8 44.2) rotate(-15.6)"/>
        <ellipse class="cls-6" cx="164.9" cy="90.3" rx="7.2" ry="12.5" transform="translate(-18.2 47.6) rotate(-15.6)"/>
        <path class="cls-3" d="M179,89.7s1.2,6.7,7.8,3.3"/>
        <path class="cls-3" d="M138.2,102.2s3.3,7.2-2.1,8.2"/>
        <path class="cls-3" d="M182.2,94.6c1.4,11.4-2,21.4-9.2,25.4-3.7,2.1-7.4,2.1-9.7,2.1-12.8-.1-21.6-10.2-23.8-12.8"/>
        <ellipse cx="168.4" cy="88.2" rx="3.2" ry="7.4" transform="translate(-15.5 40) rotate(-13)"/>
        <ellipse cx="154.7" cy="93" rx="3.2" ry="7.4" transform="translate(-16.9 37.1) rotate(-13)"/>
      </g>
    </g>
  </g>
</svg>