<?xml version="1.0" encoding="UTF-8"?>
<svg xmlns="http://www.w3.org/2000/svg" version="1.1" viewBox="0 0 181.2 119.9">
  <defs>
    <style>
      .cls-1 {
        fill: #f03b42;
        stroke: #000;
        stroke-linejoin: round;
        stroke-width: 3px;
      }

      .cls-1, .cls-2 {
        stroke-linecap: round;
      }

      .cls-2 {
        fill: none;
        stroke: #fcd8da;
        stroke-miterlimit: 10;
        stroke-width: 4px;
      }
    </style>
  </defs>
  <!-- Generator: Adobe Illustrator 28.6.0, SVG Export Plug-In . SVG Version: 1.2.0 Build 709)  -->
  <g>
    <g id="Layer_1">
      <path class="cls-1" d="M10.3,4.6l-2.6,31.1c0,.9.2,1.9.9,2.5,4.2,4.7,19.4,24-3.2,39.6-.8.6-1.3,1.4-1.5,2.4l-2.4,19c-.2,1.9,1.1,3.6,3,3.8l163.2,15.4c1.8.2,3.5-1.2,3.7-3l2.4-21.9c.1-1.1-.3-2.2-1.1-2.9-4.4-4-17.5-18.6,2.3-36s1-1.3,1.1-2.2l3.5-32.3c.2-1.9-1.2-3.5-3-3.7L14,1.5c-1.9-.2-3.5,1.2-3.7,3.1Z"/>
      <path class="cls-2" d="M25.8,7.7l-8.5-.5c-.7,0-1.4.7-1.6,1.6l-1.2,8.4"/>
      <path class="cls-2" d="M11.1,86.7l-1.1,8.6c0,.9.5,1.7,1.4,1.2l8.7,1.2"/>
      <path class="cls-2" d="M171.7,32.1l1-7.7c.1-.9-.4-1.7-1.3-2l-8.4-1.7"/>
      <path class="cls-2" d="M155.9,111h7.8c.9.2,1.7-.5,1.8-1.3l.8-8.5"/>
    </g>
  </g>
</svg>